Poster: 
http://imgr.us/images/fc973s8ggqluhtyqbgg2.jpg

Info:

Format : Matroska
Format version : Version 2
File size : 825 MiB
Duration : 2h 36mn
Overall bit rate : 739 Kbps
Movie name : Avidemux
Writing application : Lavf53.24.0
Writing library : Lavf53.24.0
AUTHOR : Avidemux

Video
ID : 1
Format : AVC
Format/Info : Advanced Video Codec
Format profile : High@L2.1
Format settings, CABAC : Yes
Format settings, ReFrames : 3 frames
Codec ID : V_MPEG4/ISO/AVC
Duration : 2h 36mn
Bit rate : 600 Kbps
Width : 688 pixels
Height : 288 pixels
Display aspect ratio : 2.40:1
Frame rate mode : Constant
Frame rate : 23.976 fps
Color space : YUV
Chroma subsampling : 4:2:0
Bit depth : 8 bits
Scan type : Progressive
Bits/(Pixel*Frame) : 0.126
Stream size : 666 MiB (81%)
Writing library : x264 core 120 r2151 a3f4407
Default : Yes
Forced : No

Audio
ID : 2
Format : AC-3
Format/Info : Audio Coding 3
Mode extension : CM (complete main)
Format settings, Endianness : Big
Codec ID : A_AC3
Duration : 2h 36mn
Bit rate mode : Constant
Bit rate : 128 Kbps
Channel(s) : 6 channels
Channel positions : Front: L C R, Side: L R, LFE
Sampling rate : 48.0 KHz
Bit depth : 16 bits
Compression mode : Lossy
Delay relative to video : -42ms
Stream size : 143 MiB (17%)
Default : Yes
Forced : No



Screens: 
http://imgr.us/images/80nvfekxcpjvbpqhkwbv.jpg 
http://imgr.us/images/mmbnekz1ambfw4gi9hv.jpg 
http://imgr.us/images/mgn9cku46ynqdat6n7t.jpg 
http://imgr.us/images/nx3lqg4gtfnm1tn3ph91.jpg 
http://imgr.us/images/osxti4aja24d3qopl0n.jpg

